<?xml version="1.0" encoding="iso-8859-1"?>
<!-- Generator: Adobe Illustrator 18.1.1, SVG Export Plug-In . SVG Version: 6.00 Build 0)  -->
<svg version="1.1" id="Capa_1" xmlns="http://www.w3.org/2000/svg" xmlns:xlink="http://www.w3.org/1999/xlink" x="0px" y="0px"
	 viewBox="0 0 463.329 463.329" style="enable-background:new 0 0 463.329 463.329;" xml:space="preserve">
<g>
	<g>
		<g>
			<polygon style="fill:#010002;" points="110.853,215.22 192.603,133.504 169.347,110.215 47.898,231.673 169.33,353.105 
				192.603,329.858 110.845,248.1 399.337,248.1 399.337,215.22 			"/>
		</g>
		<g>
			<path style="fill:#010002;" d="M231.668,0C103.928,0,0.004,103.924,0.004,231.673c0,127.741,103.924,231.656,231.664,231.656
				s231.656-103.916,231.656-231.656C463.325,103.924,359.409,0,231.668,0z M231.668,431.985
				c-110.451,0-200.312-89.861-200.312-200.304c0-110.467,89.861-200.329,200.312-200.329s200.304,89.861,200.304,200.329
				C431.973,342.124,342.12,431.985,231.668,431.985z"/>
		</g>
	</g>
</g>
<g>
</g>
<g>
</g>
<g>
</g>
<g>
</g>
<g>
</g>
<g>
</g>
<g>
</g>
<g>
</g>
<g>
</g>
<g>
</g>
<g>
</g>
<g>
</g>
<g>
</g>
<g>
</g>
<g>
</g>
</svg>
