<?xml version="1.0" encoding="iso-8859-1"?>
<!-- Generator: Adobe Illustrator 18.1.1, SVG Export Plug-In . SVG Version: 6.00 Build 0)  -->
<svg version="1.1" id="Capa_1" xmlns="http://www.w3.org/2000/svg" xmlns:xlink="http://www.w3.org/1999/xlink" x="0px" y="0px"
	 viewBox="0 0 464.694 464.694" style="enable-background:new 0 0 464.694 464.694;" xml:space="preserve">
<g>
	<g>
		<g>
			<polygon style="fill:#010002;" points="294.856,110.557 271.527,133.861 353.528,215.854 64.199,215.854 64.199,248.824 
				353.528,248.824 271.535,330.817 294.856,354.154 416.671,232.347 			"/>
		</g>
		<g>
			<path style="fill:#010002;" d="M232.347,0.008C104.233,0.008,0,104.225,0,232.347s104.233,232.339,232.347,232.339
				s232.347-104.225,232.347-232.339S360.462,0.008,232.347,0.008z M232.347,433.245c-110.776,0-200.906-90.13-200.906-200.898
				c0-110.776,90.13-200.898,200.906-200.898c110.768,0,200.906,90.122,200.906,200.898
				C433.253,343.115,343.115,433.245,232.347,433.245z"/>
		</g>
	</g>
</g>
<g>
</g>
<g>
</g>
<g>
</g>
<g>
</g>
<g>
</g>
<g>
</g>
<g>
</g>
<g>
</g>
<g>
</g>
<g>
</g>
<g>
</g>
<g>
</g>
<g>
</g>
<g>
</g>
<g>
</g>
</svg>
